<?xml version="1.0" encoding="UTF-8" standalone="no"?>
<!-- Created with Inkscape (http://www.inkscape.org/) -->
<svg xmlns:rdf="http://www.w3.org/1999/02/22-rdf-syntax-ns#" xmlns="http://www.w3.org/2000/svg" height="72" width="86" version="1.1" xmlns:cc="http://creativecommons.org/ns#" xmlns:dc="http://purl.org/dc/elements/1.1/">
 <metadata>
  <rdf:RDF>
   <cc:Work rdf:about="">
    <dc:format>image/svg+xml</dc:format>
    <dc:type rdf:resource="http://purl.org/dc/dcmitype/StillImage"/>
    <dc:title/>
   </cc:Work>
  </rdf:RDF>
 </metadata>
 <g transform="translate(0,-980.36218)">
  <g fill-rule="evenodd" transform="matrix(0.79970712,0,0,0.79982479,0,1052.3622)">
   <path fill="#2ecc71" d="m0-26.487c0-14.463,11.356-26.487,25.823-26.487l0.40682,0.02667,0.21008-1.2419c0.52853-1.5087,1.3355-2.9656,2.4509-4.3126l14.098-16.531c1.1604-1.377,2.621-2.5106,4.2499-3.3424l0.99203-0.39175,0.40181-1.402c2.1158-5.4545,7.1726-9.8505,13.8-9.8505,8.8816,0,15.271,7.4483,15.271,15.537,0,3.2957-0.99703,6.248-2.676,8.6502l-0.05836,0.06835,0.54853,0.17004c4.1332,1.7387,7.0109,5.8129,7.0109,10.576l-0.33846,2.0938,4.8334,0.49844c11.946,2.5055,20.516,13.323,20.516,25.939,0,14.24-11.148,26.488-25.827,26.488-7.337,0-13.795-3.0607-18.416-7.9034l-1.6773-2.1288-1.4289,0.78517c-1.4905,0.64181-3.1161,1.0019-4.7984,1.0019-2.5076,0-4.9151-0.79017-6.9459-2.1388l-1.3955-1.1236-0.58521,0.95688c-4.685,6.3467-12.098,10.551-20.644,10.551-14.511,0-25.823-12.206-25.823-26.487z"/>
   <path fill="#FFF" d="m8.7632-26.499c0-9.8688,7.6828-17.712,17.063-17.712,3.1278,0,5.8638,0.81184,8.2063,2.0254l2.2141-3.244c-0.2601,0-0.2601-0.40175-0.64857-0.67848-1.5656-2.1588-1.5656-4.8644,0-6.7581l14.07-16.495c1.824-2.1605,5.2069-2.4355,7.0392-0.53512l0.2601,0.26672c0.39014,0.26839,0.65024,0.54179,0.91033,1.2219l4.5583,10.677h8.5965c1.5656,0,2.7393,1.2136,2.7393,2.6989,0,1.6237-0.91367,2.8473-2.4809,3.1123v5.8113l2.4809,3.6541c2.4726-1.2186,5.2086-1.7571,7.9446-1.7571,9.5101,0,17.066,7.8434,17.066,17.712,0,9.7321-7.5561,17.712-17.066,17.712-9.5051,0-17.066-7.9801-17.066-17.712,0-5.5445,2.3459-10.412,6.1189-13.786l-1.8223-2.7106-9.7669,15.822v6.4881c0,1.752-1.8223,3.6541-3.7847,3.6541-2.0824,0-3.9031-1.9021-3.9031-3.6541v-4.0576h-8.5965c-0.912,8.9253-8.2113,15.957-17.07,15.957-9.3801,0-17.063-7.9801-17.063-17.712zm30.221,1.7554-13.158,0c-0.52019,0-1.1671-0.26506-1.5656-0.80684-0.26176-0.68015-0.26176-1.6237,0-1.8937l7.6895-11.631c-1.8223-0.94521-3.9064-1.2103-6.1239-1.2103-7.2977,0-13.417,6.0747-13.417,13.786,0,7.565,6.1189,14.058,13.417,14.058,6.7758,0,12.243-5.5462,13.158-12.303zm56.156-1.7554c0-7.7117-6.1239-13.786-13.423-13.786-2.0824,0-4.2982,0.26506-5.8588,1.2103l7.421,11.631c0.2601,0.94521,0.2601,1.8937-0.65191,2.4355-0.2601,0.26506-0.65024,0.26506-0.91033,0.26506-0.65024,0-1.1738-0.26506-1.5622-0.54179l-7.296-11.626c-2.741,2.4355-4.5617,6.0813-4.5617,10.412,0,7.565,6.1239,14.058,13.42,14.058,7.2993,0,13.423-6.4931,13.423-14.058zm-60.195-10.412-5.7304,8.5152,9.7702,0c-0.26343-3.3807-1.8257-6.0797-4.0398-8.5152zm16.548,8.5152,0-10.679-11.599-4.8661-0.2601,0-2.4742,3.9209c2.9961,3.109,5.2136,7.0315,5.7371,11.624h8.5965zm7.6878-6.0797,5.7304-9.4654-6.3807,0c0.2601,0.54178,0.65024,1.2203,0.65024,2.1638v7.3016zm8.4648-13.118,0-4.3259-6.6441,0c-1.3005,0-2.2108-0.94687-2.4709-1.7537l-3.3946-6.7665-9.115,10.952,4.8168,1.8937h16.808zm-11.33-26.901c0-3.6525,2.8644-6.7598,6.1206-6.7598,3.6447,0,6.5107,3.1073,6.5107,6.7598,0,3.6441-2.866,6.3514-6.5107,6.3514-3.2562,0-6.1206-2.7073-6.1206-6.3514z"/>
  </g>
 </g>
</svg>
