<?xml version="1.0" encoding="UTF-8" standalone="no"?>
<!-- Created with Inkscape (http://www.inkscape.org/) -->
<svg xmlns:rdf="http://www.w3.org/1999/02/22-rdf-syntax-ns#" xmlns="http://www.w3.org/2000/svg" height="140" width="270" version="1.1" xmlns:cc="http://creativecommons.org/ns#" xmlns:dc="http://purl.org/dc/elements/1.1/">
 <metadata>
  <rdf:RDF>
   <cc:Work rdf:about="">
    <dc:format>image/svg+xml</dc:format>
    <dc:type rdf:resource="http://purl.org/dc/dcmitype/StillImage"/>
    <dc:title/>
   </cc:Work>
  </rdf:RDF>
 </metadata>
 <g transform="translate(0,-912.36218)">
  <g fill="#FFF" transform="matrix(1.0087881,0,0,1.0087881,0,1052.3622)">
   <path fill-rule="evenodd" fill="#FFF" d="m258.95-1.4575s0.48346,0.39947,1.0386,0.39947c0.76353,0,1.3003-0.62511,1.6454-1.4257l0.5368-1.2318-3.636-8.6629h1.297l2.564,6.3714c0.17172,0.43457,0.31175,0.92262,0.31175,0.92262h0.0333s0.1217-0.48805,0.29341-0.92262l2.514-6.3714h1.282l-4.2978,10.558c-0.43,1.1096-1.33,1.82-2.5,1.82-0.90024,0-1.5237-0.51981-1.5237-0.51981l0.45178-0.93766zm-4.4512-9.8279-1.1436,0,0-0.99114,1.1603,0,0-2.5171,1.1586,0,0,2.5171,2.1856,0,0,0.99114-2.1856,0,0,4.3406c0,2.0508,1.3003,2.3099,1.9622,2.3099,0.24007,0,0.39677-0.033428,0.39677-0.033428v1.0563s-0.19171,0.0351-0.50346,0.0351c-1.0036,0-3.0308-0.32927-3.0308-3.2459v-4.4627zm-3.9144-1.0931,1.1786,0,0,8.7331-1.1786,0,0-8.7331zm-0.0333-3.4715,1.2303,0,0,1.4759-1.2303,0,0-1.4759zm-5.6982,3.4715,1.1603,0,0,1.5444c0,0.38442-0.035,0.69363-0.035,0.69363h0.035c0.41677-1.3187,1.3854-2.3266,2.754-2.3266,0.2434,0,0.46679,0.05349,0.46679,0.05349v1.1633s-0.20505-0.0351-0.43011-0.0351c-1.232,0-2.1489,0.97276-2.529,2.2581-0.17504,0.55658-0.24339,1.1449-0.24339,1.7015v3.6804h-1.1786v-8.7331zm-6.1316,7.9342c1.6654,0,2.669-1.7383,2.669-3.2475v-0.38108h-0.50347c-1.3704,0-4.1044,0.051814-4.1044,1.9789,0,0.81565,0.64184,1.6497,1.9388,1.6497zm2.1839-4.6014,0.48513,0,0-0.22564c0-1.6848-0.91858-2.2581-2.1672-2.2581-1.437,0-2.4573,0.8357-2.4573,0.8357l-0.55514-0.90423s1.1453-0.9878,3.1008-0.9878c2.0956,0,3.2558,1.1633,3.2558,3.3495v5.5909h-1.127v-0.95437c0-0.43457,0.035-0.73208,0.035-0.73208h-0.035s-0.72686,1.8954-2.9091,1.8954c-1.4537,0-2.9624-0.85075-2.9624-2.5857,0-2.9551,3.8293-3.0236,5.3364-3.0236zm-14.374-6.8043,1.1786,0,0,4.7217c0,0.3978-0.035,0.71202-0.035,0.71202h0.035c0.32675-0.83403,1.487-2.1695,3.4609-2.1695,2.1489,0,2.9124,1.2318,2.9124,3.3829v5.5574h-1.1786v-5.2449c0-1.3689-0.20839-2.5857-1.8872-2.5857-1.4904,0-2.7724,1.0262-3.1708,2.4837-0.10336,0.34598-0.1367,0.74712-0.1367,1.1616v4.1852h-1.1786v-12.205zm-6.5284-0.20893c2.9074,0,4.3795,1.5795,4.3795,1.5795l-0.64017,0.88418s-1.4187-1.3538-3.7043-1.3538c-2.8608,0-4.903,2.223-4.903,5.1062,0,2.9166,2.0422,5.2934,4.9346,5.2934,2.459,0,3.951-1.633,3.951-1.633l0.69184,0.85075s-1.6621,1.8954-4.6596,1.8954c-3.5993,0-6.165-2.8297-6.165-6.3915,0-3.5417,2.6324-6.231,6.1149-6.231zm-19.188,0.20893,1.1753,0,0,4.7217c0,0.3978-0.0317,0.71202-0.0317,0.71202h0.0317c0.33009-0.83403,1.4904-2.1695,3.4642-2.1695,2.1489,0,2.9108,1.2318,2.9108,3.3829v5.5574h-1.177v-5.2449c0-1.3689-0.20839-2.5857-1.8888-2.5857-1.4887,0-2.7707,1.0262-3.1692,2.4837-0.10336,0.34598-0.14004,0.74712-0.14004,1.1616v4.1852h-1.1753v-12.205zm-4.8496,3.2643c2.1289,0,3.1858,1.2485,3.1858,1.2485l-0.60516,0.88752s-0.96859-1.0597-2.5473-1.0597c-1.9022,0-3.3926,1.4224-3.3926,3.5049,0,2.0508,1.5054,3.5083,3.4276,3.5083,1.7671,0,2.7907-1.2318,2.7907-1.2318l0.53348,0.91927s-1.1753,1.3722-3.3926,1.3722c-2.5807,0-4.5729-1.8569-4.5729-4.568,0-2.6893,2.0089-4.5813,4.5729-4.5813zm-9.5942,0.20725,1.1603,0,0,1.5444c0,0.38442-0.0333,0.69363-0.0333,0.69363h0.0333c0.41845-1.3187,1.3854-2.3266,2.7541-2.3266,0.2434,0,0.46846,0.05349,0.46846,0.05349v1.1633s-0.21006-0.0351-0.43345-0.0351c-1.2303,0-2.1472,0.97276-2.5273,2.2581-0.17505,0.55658-0.2434,1.1449-0.2434,1.7015v3.6804h-1.1786v-8.7331zm-6.1299,7.9342c1.6621,0,2.6657-1.7383,2.6657-3.2475v-0.38108h-0.5018c-1.3687,0-4.1044,0.051814-4.1044,1.9789,0,0.81565,0.64184,1.6497,1.9405,1.6497zm2.1822-4.6014,0.48346,0,0-0.22564c0-1.6848-0.91691-2.2581-2.1639-2.2581-1.4387,0-2.4606,0.8357-2.4606,0.8357l-0.55181-0.90423s1.1403-0.9878,3.0992-0.9878c2.0956,0,3.2558,1.1633,3.2558,3.3495v5.5909h-1.1253v-0.95437c0-0.43457,0.0333-0.73208,0.0333-0.73208h-0.0333s-0.72686,1.8954-2.9108,1.8954c-1.4554,0-2.9624-0.85075-2.9624-2.5857,0-2.9551,3.8293-3.0236,5.3364-3.0236zm-7.637,0.12201c-0.07-1.8235-1.1786-2.6743-2.4773-2.6743-1.4537,0-2.719,0.91928-2.9958,2.6743h5.4731zm-2.4423-3.6621c2.4073,0,3.636,1.8553,3.636,4.0281,0,0.20893-0.0333,0.60672-0.0333,0.60672h-6.6868c0.0533,2.238,1.5754,3.4548,3.3776,3.4548,1.5938,0,2.6507-1.0597,2.6507-1.0597l0.5368,0.90256s-1.2637,1.2168-3.2225,1.2168c-2.5973,0-4.5529-1.877-4.5529-4.568,0-2.8648,1.9388-4.5813,4.2945-4.5813zm-10.996,7.0299s0.96858,1.0597,2.5973,1.0597c0.93525,0,1.7488-0.46967,1.7488-1.3889,0-1.9104-4.6929-1.4408-4.6929-4.2888,0-1.5644,1.4004-2.4118,2.9791-2.4118,1.8338,0,2.684,0.95437,2.684,0.95437l-0.53847,0.90089s-0.74353-0.79893-2.1806-0.79893c-0.88356,0-1.7338,0.38275-1.7338,1.3555,0,1.9288,4.6929,1.4057,4.6929,4.2888,0,1.4224-1.2286,2.4486-2.9774,2.4486-2.1139,0-3.2225-1.2669-3.2225-1.2669l0.64351-0.85242zm-2.9441-3.3679c-0.0684-1.8235-1.1786-2.6743-2.4773-2.6743-1.4537,0-2.719,0.91928-2.9958,2.6743h5.4731zm-2.4423-3.6621c2.4056,0,3.636,1.8553,3.636,4.0281,0,0.20893-0.0333,0.60672-0.0333,0.60672h-6.6868c0.0534,2.238,1.5771,3.4548,3.3776,3.4548,1.5954,0,2.6507-1.0597,2.6507-1.0597l0.53681,0.90256s-1.2637,1.2168-3.2225,1.2168c-2.5974,0-4.5562-1.877-4.5562-4.568,0-2.8648,1.9405-4.5813,4.2978-4.5813zm-9.6992,2.7244c1.472,0,2.4073-0.95437,2.4073-2.4837,0-1.0062-0.39843-1.7533-1.107-2.1344-0.3651-0.19221-0.79855-0.29417-1.7338-0.29417h-2.4573v4.9123h2.8908zm-4.0877-5.9887,3.6043,0c1.2453,0,1.8005,0.11867,2.2856,0.32927,1.142,0.50309,1.8338,1.6664,1.8338,3.1422,0,1.648-0.93525,2.9166-2.3006,3.2977v0.035099s0.11836,0.15544,0.31174,0.48805l2.6474,4.9123h-1.3687l-2.754-5.1413h-3.0625v5.1413h-1.197v-12.205zm-10.043,3.4715,1.1603,0,0,1.5444c0,0.38442-0.035,0.69363-0.035,0.69363h0.035c0.41678-1.3187,1.387-2.3266,2.7541-2.3266,0.24173,0,0.46678,0.05349,0.46678,0.05349v1.1633s-0.20838-0.0351-0.43344-0.0351c-1.2287,0-2.1456,0.97276-2.5257,2.2581-0.17505,0.55658-0.24674,1.1449-0.24674,1.7015v3.6804h-1.1753v-8.7331zm-3.0125,3.4548c-0.0684-1.8235-1.1786-2.6743-2.4773-2.6743-1.4537,0-2.7157,0.91928-2.9958,2.6743h5.4731zm-2.4423-3.6621c2.4056,0,3.636,1.8553,3.636,4.0281,0,0.20893-0.0334,0.60672-0.0334,0.60672h-6.6868c0.0533,2.238,1.5771,3.4548,3.3776,3.4548,1.5954,0,2.6507-1.0597,2.6507-1.0597l0.53681,0.90256s-1.2637,1.2168-3.2225,1.2168c-2.594,0-4.5562-1.877-4.5562-4.568,0-2.8648,1.9438-4.5813,4.2978-4.5813zm-8.7973,0c2.1289,0,3.1875,1.2485,3.1875,1.2485l-0.60849,0.88752s-0.97026-1.0597-2.5457-1.0597c-1.9055,0-3.3959,1.4224-3.3959,3.5049,0,2.0508,1.5087,3.5083,3.4309,3.5083,1.7671,0,2.7874-1.2318,2.7874-1.2318l0.5368,0.91927s-1.1753,1.3722-3.3926,1.3722c-2.5823,0-4.5729-1.8569-4.5729-4.568,0-2.6893,2.0089-4.5813,4.5729-4.5813zm-13.717,0.20725,1.1603,0,0,1.3004c0,0.38442-0.0333,0.69698-0.0333,0.69698h0.0333c0.31175-0.8006,1.4204-2.2046,3.4809-2.2046,2.1489,0,2.9091,1.2318,2.9091,3.3829v5.5574h-1.1753v-5.2449c0-1.3689-0.20838-2.5857-1.8905-2.5857-1.4871,0-2.7707,1.0262-3.1675,2.4637-0.10336,0.36604-0.14003,0.76718-0.14003,1.1817v4.1852h-1.177v-8.7331zm-6.1299,7.9342c1.6638,0,2.6657-1.7383,2.6657-3.2475v-0.38108h-0.5018c-1.3687,0-4.1044,0.051814-4.1044,1.9789,0,0.81565,0.64184,1.6497,1.9405,1.6497zm2.1822-4.6014,0.48346,0,0-0.22564c0-1.6848-0.91691-2.2581-2.1639-2.2581-1.4387,0-2.4573,0.8357-2.4573,0.8357l-0.55515-0.90423s1.1403-0.9878,3.0991-0.9878c2.0956,0,3.2559,1.1633,3.2559,3.3495v5.5909h-1.1253v-0.95437c0-0.43457,0.0333-0.73208,0.0333-0.73208h-0.0333s-0.72686,1.8954-2.9108,1.8954c-1.452,0-2.9624-0.85075-2.9624-2.5857,0-2.9551,3.8293-3.0236,5.3364-3.0236zm-11.157-7.0138c2.9124,0,4.3811,1.5795,4.3811,1.5795l-0.64017,0.88418s-1.4187-1.3538-3.7043-1.3538c-2.8591,0-4.903,2.223-4.903,5.1062,0,2.9166,2.0439,5.2934,4.938,5.2934,2.459,0,3.9477-1.633,3.9477-1.633l0.69185,0.85075s-1.6621,1.8954-4.6596,1.8954c-3.6009,0-6.1616-2.8297-6.1616-6.3915,0-3.5417,2.629-6.231,6.1099-6.231zm-13.8,0.20893,1.1786,0,0,9.878c0,1.1466,0.5168,1.3187,0.96859,1.3187,0.15671,0,0.29341-0.015043,0.29341-0.015043v1.0563s-0.20505,0.0351-0.43345,0.0351c-0.72686,0-2.0072-0.22564-2.0072-2.1361v-10.137zm-6.0449,11.406c1.6621,0,2.6674-1.7383,2.6674-3.2475v-0.38108h-0.50346c-1.3687,0-4.1027,0.051814-4.1027,1.9789,0,0.81565,0.64184,1.6497,1.9388,1.6497zm2.1839-4.6014,0.48346,0,0-0.22564c0-1.6848-0.91691-2.2581-2.1656-2.2581-1.437,0-2.4573,0.8357-2.4573,0.8357l-0.55515-0.90423s1.142-0.9878,3.1008-0.9878c2.0955,0,3.2559,1.1633,3.2559,3.3495v5.5909h-1.127v-0.95437c0-0.43457,0.03501-0.73208,0.03501-0.73208h-0.03501s-0.72852,1.8954-2.9091,1.8954c-1.4554,0-2.9624-0.85075-2.9624-2.5857,0-2.9551,3.826-3.0236,5.3364-3.0236zm-9.7342-3.54c2.1306,0,3.1875,1.2485,3.1875,1.2485l-0.60516,0.88752s-0.97026-1.0597-2.5457-1.0597c-1.9055,0-3.3959,1.4224-3.3959,3.5049,0,2.0508,1.5071,3.5083,3.4276,3.5083,1.7688,0,2.7891-1.2318,2.7891-1.2318l0.53681,0.91927s-1.177,1.3722-3.3942,1.3722c-2.579,0-4.5712-1.8569-4.5712-4.568,0-2.6893,2.0072-4.5813,4.5712-4.5813zm-10.338,8.0896c1.8672,0,3.3926-1.526,3.3926-3.5584,0-1.9789-1.5254-3.4548-3.3926-3.4548-1.8688,0-3.3942,1.4759-3.3942,3.4548,0,2.0324,1.5254,3.5584,3.3942,3.5584zm0-8.0896c2.544,0,4.6062,1.9455,4.6062,4.5312,0,2.6392-2.0622,4.6181-4.6062,4.6181-2.5457,0-4.6062-1.9789-4.6062-4.6181,0-2.5857,2.0605-4.5312,4.6062-4.5312zm-12.16-3.2643,1.197,0,0,11.128,5.6448,0,0,1.0764-6.8418,0,0-12.205zm-10.301,3.4715,1.1603,0,0,1.5444c0,0.38442-0.03501,0.69363-0.03501,0.69363h0.03501c0.41511-1.3187,1.3837-2.3266,2.7541-2.3266,0.24173,0,0.46679,0.05349,0.46679,0.05349v1.1633s-0.20839-0.0351-0.43345-0.0351c-1.232,0-2.1456,0.97276-2.5257,2.2581-0.17504,0.55658-0.24673,1.1449-0.24673,1.7015v3.6804h-1.1753v-8.7331zm-9.8709,0,1.1753,0,0,5.2432c0,1.3722,0.21006,2.5857,1.8905,2.5857,1.9905,0,3.2192-1.7516,3.2192-3.6453v-4.1835h1.1786v8.7331h-1.1453v-1.302c0-0.38442,0.03668-0.69363,0.03668-0.69363h-0.03668c-0.34509,0.85075-1.4871,2.2046-3.4092,2.2046-2.0455,0-2.9091-1.1132-2.9091-3.3863v-5.5558zm-6.0783,7.8824c1.8688,0,3.3926-1.526,3.3926-3.5584,0-1.9789-1.5237-3.4548-3.3926-3.4548-1.8705,0-3.3959,1.4759-3.3959,3.4548,0,2.0324,1.5254,3.5584,3.3959,3.5584zm0-8.0896c2.544,0,4.6062,1.9455,4.6062,4.5312,0,2.6392-2.0622,4.6181-4.6062,4.6181-2.5457,0-4.6062-1.9789-4.6062-4.6181,0-2.5857,2.0605-4.5312,4.6062-4.5312zm-8.8156,3.6948-4.1044-6.9598h1.3687l2.579,4.4276c0.3651,0.62511,0.7452,1.4575,0.7452,1.4575h0.035009s0.36176-0.81565,0.7452-1.4575l2.579-4.4276h1.3504l-4.0861,6.9597v5.2449h-1.212v-5.2449zm252.57-30.176c1.8572,0,3.0175-1.0313,3.0175-2.9283,0-1.7951-0.66351-2.8615-3.5843-2.8615h-1.9572v5.7898h2.524zm-8.3305-10.781,8.2605,0c2.424,0,3.5859,0.16714,4.6146,0.56326,2.6874,1.0346,4.3812,3.4632,4.3812,6.9213,0,2.5305-1.1936,5.2917-3.5509,6.4918v0.06686s0.33009,0.43122,0.89524,1.4307l4.6129,8.3169h-6.47l-4.2161-8.0177h-2.7207v8.0177h-5.8065v-23.791zm-16.648,0,14.869,0,0,4.9908-9.059,0,0,4.3273,7.2336,0,0,4.9892-7.2336,0,0,4.4911,9.5242,0,0,4.9925-15.334,0,0-23.791zm-10.658-0.40114c5.8749,0,8.894,3.3629,8.894,3.3629l-2.689,4.3925s-2.6524-2.4286-5.9399-2.4286c-4.5462,0-6.7018,3.3595-6.7018,6.7876,0,3.5267,2.3223,7.1536,6.7018,7.1536,3.5859,0,6.305-2.9266,6.305-2.9266l2.9858,4.2571s-3.3509,3.993-9.5558,3.993c-7.4336,0-12.445-5.2917-12.445-12.345,0-6.9196,5.3097-12.246,12.445-12.246zm-34.004,0.40114,5.8749,0,6.57,11.112c0.93025,1.5661,1.9905,4.0615,1.9905,4.0615h0.0683s-0.26674-2.5606-0.26674-4.0615v-11.112h5.8082v23.791h-5.8432l-6.6034-11.078c-0.92857-1.5661-1.9905-4.0599-1.9905-4.0599h-0.0667s0.26507,2.5606,0.26507,4.0599v11.078h-5.8065v-23.791zm-12.447,5.4237s-0.53014,2.594-0.96192,4.0933l-1.362,4.6231h4.6812l-1.327-4.6231c-0.43178-1.4993-0.96525-4.0933-0.96525-4.0933h-0.065zm3.7176,13.375-7.4019,0-1.4254,4.9925-5.9749,0,8.0654-23.791,6.1049,0,8.0654,23.791-5.9749,0-1.4587-4.9925zm-24.465-19.199c5.8732,0,8.894,3.3629,8.894,3.3629l-2.6874,4.3925s-2.6574-2.4286-5.9416-2.4286c-4.5479,0-6.7051,3.3595-6.7051,6.7876,0,3.5267,2.3239,7.1536,6.7051,7.1536,3.5843,0,6.305-2.9266,6.305-2.9266l2.9891,4.2571s-3.3526,3.993-9.5592,3.993c-7.4336,0-12.443-5.2917-12.443-12.345,0-6.9196,5.308-12.246,12.443-12.246zm-30.46,5.392-7.2019,0,0-4.9908,20.212,0,0,4.9908-7.2036,0,0,18.8-5.8065,0,0-18.8zm-21.992,11.381s2.6874,2.462,5.6732,2.462c1.1953,0,2.489-0.46632,2.489-1.897,0-2.828-10.684-2.7277-10.684-10.05,0-4.3908,3.6843-7.2873,8.3939-7.2873,5.1113,0,7.6353,2.6977,7.6353,2.6977l-2.4556,4.7585s-2.389-2.0976-5.2464-2.0976c-1.1936,0-2.5207,0.53151-2.5207,1.8653,0,2.9935,10.688,2.4603,10.688,9.98,0,3.9612-3.0208,7.3876-8.3638,7.3876-5.5748,0-8.6639-3.3946-8.6639-3.3946l3.0558-4.4242zm-24.365-16.371,5.8732,0,6.5717,11.112c0.92858,1.5661,1.9905,4.0615,1.9905,4.0615h0.06668s-0.26507-2.5606-0.26507-4.0615v-11.112h5.8082v23.791h-5.8432l-6.6034-11.078c-0.93024-1.5661-1.9922-4.0599-1.9922-4.0599h-0.06668s0.26674,2.5606,0.26674,4.0599v11.078h-5.8065v-23.791zm-8.0404,0,5.8082,0,0,23.791-5.8082,0,0-23.791zm-12.863,5.4237s-0.52847,2.594-0.96192,4.0933l-1.3604,4.6231h4.6796l-1.327-4.6231c-0.43011-1.4993-0.96192-4.0933-0.96192-4.0933h-0.06835zm3.7193,13.375-7.4036,0-1.4237,4.9925-5.9749,0,8.0654-23.791,6.1066,0,8.0638,23.791-5.9749,0-1.4587-4.9925zm-26.659-19.199c6.0733,0,9.1257,3.1623,9.1257,3.1623l-2.7857,4.3607s-2.4223-2.1962-5.7765-2.1962c-4.9763,0-7.0035,3.1957-7.0035,6.7191,0,4.5278,3.1208,7.2222,6.8051,7.2222,2.7891,0,4.8129-1.7299,4.8129-1.7299v-1.8302h-3.3509v-4.9574h8.4956v13.441h-4.8463v-0.66522c0-0.49808,0.03501-0.99616,0.03501-0.99616h-0.07002s-2.2873,2.0608-6.2366,2.0608c-6.0749,0-11.65-4.5579-11.65-12.345,0-6.9196,5.213-12.246,12.445-12.246zm-22.091,5.8249s-0.53014,2.594-0.96192,4.0933l-1.3604,4.6231h4.6796l-1.3253-4.6231c-0.43345-1.4993-0.96525-4.0933-0.96525-4.0933h-0.06668zm3.7193,13.375-7.4019,0-1.4287,4.9925-5.9749,0,8.0688-23.791,6.1049,0,8.0654,23.791-5.9749,0-1.4587-4.9925zm135.71-68.783c0,22.412-16.818,39.915-39.814,39.915-22.991,0-39.807-17.503-39.807-39.915,0-11.427,4.5962-21.541,12.26-28.599-3.5809,10.41-2.479,14.491,2.9391,23.587-0.42011,1.872-0.66184,3.8091-0.66184,5.8065,0,0.98947,0.06335,1.9639,0.17004,2.9266-0.42511,0.50477-0.74853,1.1499-0.94858,1.7483-0.44512,1.3321-2.8157,1.394-0.08002,1.8068,0.60016,0.09193,1.1836,0.13706,1.7421,0.1755,1.9872,0.13706,3.5909,0.14541,3.966,1.4541,0.68685,2.3951,1.6971,6.2578,5.7032,8.3002,3.851,1.9606,6.9368,2.1728,9.5008,1.19,2.394-0.91092,2.1806-0.25907,1.6338,0.34264,0,0-1.5354,1.4959-2.2222,3.5634,0.26173,0.70701,1.8488,3.4063,5.1614,5.0527,2.734,1.3572,6.6434,1.9957,11.985,0.1755,4.6696-1.5929,6.9952-4.0649,8.0038-6.4633,1.5421-3.6621-0.005-7.1503-1.0136-7.0717-1.6738,0.13204-11.531-0.76049-13.455-2.0007-1.9255-1.2335-1.3687-2.691,0.50513-3.1506,1.7305-0.4212,11.828,2.2046,21.812-17.137,0.83021-1.6062,1.6604-3.3462,2.4823-5.2733,1.0703-2.4904-1.0103-2.5405-2.5323-1.9305-0.31841,0.12703-1.5054,0.51145-3.1808,1.0363-6.2533,1.9622-19.4,5.9486-20.604,6.4249-1.5221,0.61508-3.9027,1.2736-4.6112,2.4419-0.71019,1.17-4.6679,6.002-5.9866,7.1152-1.3204,1.1182-1.4237,0.86579-1.4687-1.4759-0.0483-2.335-0.65851-9.761-0.65851-11.232,0.003-1.4758-2.2306-5.5959-3.646-7.6784-0.18838-0.27578-0.68018-0.89587-1.3504-1.7115-2.8791-3.5166-9.0924-10.757-9.0924-10.757-0.11836-0.11867-0.22839-0.20726-0.34342-0.29919,6.5184-4.6181,14.671-7.3191,23.798-7.3191,22.996,0,39.814,17.075,39.814,38.952zm-64.914,3.7206c-0.10669-0.96273-0.17004-1.9372-0.17004-2.9266,0-1.9973,0.24173-3.9345,0.66184-5.8065,0.70018,1.175,1.4604,2.4235,2.3073,3.7941,2.5073,4.0716,2.5557,4.8187-0.79688,4.0799-0.80521-0.18051-1.4787,0.23233-2.0022,0.8591zm180.96,34.912-49.18,0,0-76.305,47.686,0,0,16.009-29.056,0,0,13.873,23.204,0,0,16.009-23.204,0,0,14.406,30.55,0,0,16.009zm-83.183-39.592-9.1541,0,0-20.704,9.4742,0c6.17,0,9.3658,4.1618,9.3658,10.246,0,6.0806-3.1958,10.458-9.6859,10.458zm3.8293-36.712-31.613,0,0,76.305,18.63,0,0-23.584,12.983,0c14.797,0,24.801-11.1,24.801-26.467s-10.004-26.254-24.801-26.254zm-167.77,76.305-18.628,0,0-76.305,18.628,0,0,30.523,27.676,0,0-30.523,18.628,0,0,76.305-18.628,0,0-29.881-27.676,0,0,29.881z"/>
  </g>
 </g>
</svg>
