<?xml version="1.0" encoding="UTF-8" standalone="no"?>
<!-- Created with Inkscape (http://www.inkscape.org/) -->
<svg xmlns:rdf="http://www.w3.org/1999/02/22-rdf-syntax-ns#" xmlns="http://www.w3.org/2000/svg" height="68" width="106.3" version="1.1" xmlns:cc="http://creativecommons.org/ns#" xmlns:dc="http://purl.org/dc/elements/1.1/">
 <metadata>
  <rdf:RDF>
   <cc:Work rdf:about="">
    <dc:format>image/svg+xml</dc:format>
    <dc:type rdf:resource="http://purl.org/dc/dcmitype/StillImage"/>
    <dc:title/>
   </cc:Work>
  </rdf:RDF>
 </metadata>
 <g transform="translate(0,-984.36218)"></g>
 <g fill-rule="evenodd" transform="matrix(0.78003414,0,0,54.831478,-2.7222088e-4,67.999617)">
  <path fill="#e67e22" d="M77.131-0.00051037c-1.106-0.0012394-2.071-0.0046176-2.704-0.0071695-1.3075-0.0052738-2.6013-0.012784-3.555-0.018714-1.9792-0.012322-3.7396-0.025737-3.7977-0.026175-1.1468-0.0087492-2.1484-0.020925-2.9312-0.035726-0.07691-0.0014582-0.98104-0.018592-1.9484-0.041024-0.32473-0.00751-0.94686-0.022116-1.5433-0.04049l-0.92806-0.042045-0.1128,0.00051037-0.19313-0.014315-0.16237-0.007437,0.06153-0.00012152-0.26833-0.020099,0.01196-0.020609-2.4475-0.051329h-47.671c-9.7882,0-12.449-0.19324-3.3858-0.24576l9.4481-0.054731,0.23073-0.001555c0.67852-0.004569,1.9211-0.012711,3.4849-0.022043l0.06837-0.00041316-0.48368-0.028459c-0.26321-0.042312,0.77082-0.092159,4.1241-0.12329,2.5261-0.023453,5.1599-0.022845,5.7119-0.022845h11.113l0.21364-0.004569c2.3518-0.040198,5.9888-0.059592,8.6636-0.064404l0.9366-0.00085062,0.4307-0.004691,1.3502-0.014631-0.20168-0.004132c-0.4683-0.012006-0.85627-0.024814-1.152-0.038278l-0.37772-0.024328-0.10768-0.009673-0.09229-0.008239-0.21364-0.021946c-0.2803-0.081708,2.6098-0.17134,8.8208-0.20289l0.86482-0.0027,1.0238-0.00719c1.5314-0.00717,2.8201-0.00729,3.3328-0.00729,0.48539,0,0.97591,0.0005833,1.4562,0.0017,4.8044,0.011252,8.7576,0.054488,11.019,0.11197l1.5109,0.055825,1.569,0.010013c3.3072,0.031303,5.2966,0.078743,5.7375,0.088465,1.7023,0.037622,2.5346,0.061342,3.2969,0.07607,0.51103,0.009187,1.1605,0.020925,1.851,0.033466l2.092,0.038302h25.432c5.3342,0,10.162,0.059519,9.9454,0.14495-0.082,0.03174-0.8802,0.059276-1.4955,0.076629l-0.0581,0.001507,5.4128,0.029091c9.2686,0.049846,6.7357,0.24692-3.1738,0.24692h-41.568l0.04615,0.001167c0.29055,0.00768,0.49052,0.01344,0.58623,0.016089,0.993,0.027949,1.7194,0.052641,1.7519,0.053735,0.45976,0.015603,0.69732,0.032348,0.69732,0.049263,0,0.00192,0,0.025543-0.26833,0.052277-0.12989,0.012881-0.37601,0.032421-0.90584,0.052447-0.26662,0.010159-1.0648,0.039153-2.9722,0.063651l-1.4955,0.014412,0.04444,0.00097214-0.5059,0.0034511-0.34012,0.003281-0.02735-0.00075341,0.87336-0.0059786c-2.696,0.024338-5.404,0.021568-6.125,0.020766z"/>
  <path fill="#FFF" d="m62.745-1.1126c-0.31961,0-0.63921,0-0.95198,0.00593-2.8594,0.00403-4.7633,0.050041-3.9703,0.096023,0.3179,0.045958,3.1721,0.075924,6.0332,0.06997,0.31277,0.005954,0.79133,0.005954,0.79133,0.009964,0,0.005954-0.47856,0.015992-0.47856,0.026005-1.7433,0.020002-4.2848,0.055898-6.346,0.0759-1.4305,0.01604-4.2848,0.046006-6.0349,0.066008-0.79133-0.003986-1.422-0.003986-2.5329-0.003986-2.2219,0.003986-3.1739,0.020002-3.1739,0.033976,0,0.020026,1.422,0.025956,3.1739,0.025956l18.886,0.3959c0,0.035896-0.31961,0.046006,0,0.059908,0.31961,0.032081,3.1721,0.085961,3.1721,0.085961s6.0349,0.045982,7.1442,0.035993c1.4237-0.00994,1.4237-0.075948,1.4237-0.075948s-2.5329-0.08601-4.2831-0.10591c-1.1109-0.010062-2.856-0.010062-5.2368-0.026053l-18.252-0.3757s6.8263-0.040028,8.5764-0.059957c1.422-0.010062,4.2848-0.036042,5.7068-0.049992,1.4305,0.023915,3.1807,0.059932,4.2899,0.079958,1.1109,0.016016,2.0612,0.02999,3.1756,0.045982h-18.575l5.4026,0.10594c2.8525-0.009964,4.9155-0.020026,7.4569-0.020026l16.823,0.071938c1.4288-0.009964,10.636-0.071938,16.343-0.071938l11.118,0.045958c3.1721-0.055898,7.1356-0.13187,4.2848-0.13187h-30.002c-0.31448-0.010062-4.2848-0.082-6.5049-0.12193-2.3825-0.045982-4.9172-0.13199-7.7782-0.14198h-2.5415-0.95198c-0.47001,0-1.4305-0.015992-1.4305-0.020002,0.64092-0.020026,0.64092-0.029942,0.64092-0.055947-0.64092-0.040028-2.8611-0.070018-5.3957-0.075948zm-34.605,0.41581c-3.1738,0,2.2202,0.045982,7.9355,0.091989l15.242,0.065862c0.78962-0.005906,1.4288-0.005906,3.3311-0.015919l-6.8263-0.14193h-19.682zm6.5135,0.11588c-5.7153,0-16.033,0.071963-16.033,0.071963l-9.6788,0.056068h50.312l-3.972-0.075997c-2.5346,0.013974-3.4935,0.023939-3.4935,0.023939l-9.6771-0.039906-7.4569-0.036066zm33.487,0.006052c-2.0629,0-3.4935,0-6.3477,0.01604l5.7068,0.10594h59.84l-9.6805-0.052058-16.033-0.069921c-5.7136,0-16.662,0.069921-16.662,0.069921l-16.823-0.069921z"/>
 </g>
</svg>
